<svg width="464" height="149" viewBox="0 0 464 149" fill="none" xmlns="http://www.w3.org/2000/svg">
<path d="M29.7314 97C23.9319 97 18.7932 95.9744 14.3151 93.9231C9.83706 91.8718 6.31333 88.8681 3.74395 84.9121C1.24798 80.8828 0 76.011 0 70.2967V67.5495H11.7824V70.2967C11.7824 75.7179 13.3975 79.7839 16.6276 82.4945C19.931 85.2051 24.299 86.5604 29.7314 86.5604C35.2372 86.5604 39.3849 85.4249 42.1745 83.1538C44.9642 80.8095 46.359 77.8059 46.359 74.1429C46.359 71.7253 45.6983 69.7473 44.3769 68.2088C43.0555 66.6703 41.1835 65.4615 38.7609 64.5824C36.3384 63.63 33.4387 62.7509 30.0618 61.9451L25.9874 60.956C21.0689 59.7839 16.7744 58.3553 13.1038 56.6703C9.50671 54.9121 6.71709 52.6044 4.735 49.7473C2.75291 46.8901 1.76186 43.2271 1.76186 38.7582C1.76186 34.2161 2.86302 30.3333 5.06535 27.1099C7.34109 23.8864 10.461 21.3956 14.4252 19.6374C18.3894 17.8791 23.051 17 28.41 17C33.769 17 38.5407 17.9158 42.7251 19.7473C46.983 21.5788 50.3231 24.2894 52.7457 27.8791C55.1683 31.4689 56.3795 35.9744 56.3795 41.3956V45.3517H44.5971V41.3956C44.5971 38.0989 43.8997 35.4249 42.5049 33.3736C41.1835 31.3223 39.3115 29.8205 36.889 28.8681C34.4664 27.9158 31.6401 27.4396 28.41 27.4396C23.7117 27.4396 20.0412 28.4286 17.3984 30.4066C14.829 32.3114 13.5443 34.9853 13.5443 38.4286C13.5443 40.7729 14.0949 42.7143 15.196 44.2528C16.3706 45.718 18.0591 46.9267 20.2614 47.8791C22.4637 48.8315 25.2166 49.674 28.5201 50.4066L32.5944 51.3956C37.5864 52.4945 41.991 53.9231 45.8084 55.6813C49.6257 57.3663 52.6356 59.674 54.8379 62.6044C57.0402 65.5348 58.1414 69.3077 58.1414 73.9231C58.1414 78.5385 56.9668 82.5678 54.6177 86.011C52.3419 89.4542 49.0752 92.1648 44.8173 94.1429C40.5595 96.0476 35.5309 97 29.7314 97Z" fill="white"/>
<path d="M99.2561 97C89.8595 97 82.4083 94.3626 76.9025 89.0879C71.3966 83.7399 68.6437 76.0476 68.6437 66.011V47.989C68.6437 37.9524 71.3966 30.2967 76.9025 25.022C82.4083 19.674 89.8595 17 99.2561 17C108.506 17 115.627 19.5641 120.619 24.6923C125.684 29.8205 128.217 36.8169 128.217 45.6813V46.3407H116.434V45.3517C116.434 40.1502 115.003 35.9011 112.14 32.6044C109.35 29.3077 105.056 27.6593 99.2561 27.6593C93.3832 27.6593 88.795 29.4542 85.4915 33.044C82.188 36.5604 80.5363 41.4689 80.5363 47.7692V66.2308C80.5363 72.4579 82.188 77.3663 85.4915 80.956C88.795 84.5458 93.3832 86.3407 99.2561 86.3407C105.056 86.3407 109.35 84.6923 112.14 81.3956C115.003 78.0256 116.434 73.7766 116.434 68.6484V66.7802H128.217V68.3187C128.217 77.1832 125.684 84.1795 120.619 89.3077C115.627 94.4359 108.506 97 99.2561 97Z" fill="white"/>
<path d="M134.905 95.4615L156.929 18.5385H177.851L199.764 95.4615H187.541L182.476 77.3297H152.304L147.238 95.4615H134.905ZM155.277 66.3407H179.502L168.271 25.9011H166.509L155.277 66.3407Z" fill="white"/>
<path d="M207.344 95.4615V84.9121H217.695V29.0879H207.344V18.5385H238.176C248.454 18.5385 256.309 21.1392 261.741 26.3407C267.247 31.5421 270 39.381 270 49.8571V64.2527C270 74.7289 267.247 82.5678 261.741 87.7692C256.309 92.8974 248.454 95.4615 238.176 95.4615H207.344ZM229.697 84.6923H238.287C244.967 84.6923 249.922 83.0073 253.152 79.6374C256.382 76.2674 257.997 71.2491 257.997 64.5824V49.4176C257.997 42.6777 256.382 37.6593 253.152 34.3626C249.922 31.0659 244.967 29.4176 238.287 29.4176H229.697V84.6923Z" fill="white"/>
<path d="M343.554 97.8462C327.22 97.8462 316.505 88.6894 316.505 71.3343V21.5047H328.469V70.5889C328.469 81.3428 334.399 86.8794 343.554 86.8794C352.709 86.8794 358.639 81.3428 358.639 70.5889V21.5047H370.603V71.3343C370.603 88.6894 359.887 97.8462 343.554 97.8462Z" fill="white"/>
<path d="M390.566 96.0361H377.041L400.761 58.7704L377.041 21.5047H390.566L407.524 48.7619L424.481 21.5047H438.006L414.286 58.7704L438.006 96.0361H424.481L407.524 68.8854L390.566 96.0361Z" fill="white"/>
<path fill-rule="evenodd" clip-rule="evenodd" d="M444.058 143.682C443.038 146.759 440.222 148.125 437.899 148.236C435.555 148.349 432.485 147.208 431.338 143.965L419.702 111.042C417.815 105.702 423.314 100.74 428.428 103.168L460.195 118.252C463.141 119.65 464.087 122.628 463.794 124.972C463.504 127.292 461.915 129.856 458.904 130.638C456.738 131.201 454.538 131.891 452.625 132.689C450.648 133.514 449.267 134.337 448.503 135.045C447.003 136.434 445.387 139.674 444.058 143.682ZM435.245 142.583L423.608 109.659C422.95 107.797 424.868 106.067 426.651 106.914L458.419 121.997C460.404 122.939 459.99 126.073 457.863 126.625C453.293 127.812 448.268 129.614 445.689 132.002C443.341 134.176 441.463 138.343 440.126 142.377C439.409 144.538 436.004 144.729 435.245 142.583Z" fill="white"/>
<path d="M417.411 107.098C417.31 108.11 417.423 109.181 417.802 110.265H305.752V107.098H417.411Z" fill="white"/>
<path d="M443.382 108.63L440.156 107.098H443.382V108.63Z" fill="white"/>
<path d="M301.221 102.147H298.299V10.7527H301.221V102.147Z" fill="white"/>
<path d="M449.041 102.147H446.119V10.7527H449.041V102.147Z" fill="white"/>
<path d="M443.382 7.35327H305.752V4.18726H443.382V7.35327Z" fill="white"/>
<path fill-rule="evenodd" clip-rule="evenodd" d="M304.216 1.53605H296.536V9.21628H304.216V1.53605ZM295 0V10.7523H305.752V0H295Z" fill="white"/>
<path fill-rule="evenodd" clip-rule="evenodd" d="M304.216 103.683H296.536V111.363H304.216V103.683ZM295 102.147V112.899H305.752V102.147H295Z" fill="white"/>
<path fill-rule="evenodd" clip-rule="evenodd" d="M451.677 103.683H444.765V111.363H451.677V103.683ZM443.382 102.147V112.899H453.059V102.147H443.382Z" fill="white"/>
<path fill-rule="evenodd" clip-rule="evenodd" d="M451.677 1.53605H444.765V9.21628H451.677V1.53605ZM443.382 0V10.7523H453.059V0H443.382Z" fill="white"/>
</svg>
